<svg width="149" height="51" viewBox="0 0 149 51" fill="none" xmlns="http://www.w3.org/2000/svg">
<path d="M72.0846 34.6203C70.9297 34.6203 69.8762 34.4305 68.9228 34.0521C67.9693 33.6737 67.1573 33.1092 66.4892 32.3586C65.8198 31.6092 65.3018 30.6774 64.9339 29.5656C64.5661 28.4538 64.3821 27.1646 64.3821 25.6966C64.3821 24.2286 64.5661 22.9406 64.9339 21.8276C65.3018 20.7159 65.821 19.7853 66.4892 19.0347C67.1586 18.2853 67.9693 17.7207 68.9228 17.3411C69.8762 16.9627 70.9297 16.7729 72.0846 16.7729C73.2394 16.7729 74.2929 16.9627 75.2464 17.3411C76.1998 17.7207 77.0106 18.2853 77.68 19.0347C78.3493 19.784 78.8673 20.7159 79.2352 21.8276C79.6031 22.9406 79.787 24.2299 79.787 25.6966C79.787 27.1634 79.6031 28.4526 79.2352 29.5656C78.8673 30.6786 78.3481 31.6092 77.68 32.3586C77.0106 33.108 76.1998 33.6725 75.2464 34.0521C74.2929 34.4318 73.2394 34.6203 72.0846 34.6203ZM72.0846 31.2838C73.2394 31.2838 74.1378 30.9128 74.7822 30.1708C75.4265 29.4288 75.7481 28.3663 75.7481 26.9822V24.4111C75.7481 23.0269 75.4253 21.9644 74.7822 21.2224C74.1378 20.4804 73.2394 20.1107 72.0846 20.1107C70.9297 20.1107 70.0313 20.4817 69.387 21.2224C68.7426 21.9644 68.421 23.0269 68.421 24.4111V26.9822C68.421 28.3663 68.7426 29.4288 69.387 30.1708C70.0313 30.9128 70.9297 31.2838 72.0846 31.2838Z" fill="#8ABE84"/>
<path d="M82.7736 34.3245V21.3469H86.4872V24.1646H86.6123C86.6786 23.8022 86.7962 23.4521 86.9639 23.1144C87.1303 22.7767 87.353 22.476 87.6283 22.2122C87.9048 21.9484 88.2339 21.7389 88.6193 21.5824C89.0034 21.4258 89.4551 21.3482 89.9743 21.3482H90.6262V24.7599H89.6978C88.6105 24.7599 87.8035 24.9004 87.2767 25.1802C86.75 25.4612 86.4859 25.9801 86.4859 26.7381V34.327H82.7724L82.7736 34.3245Z" fill="#8ABE84"/>
<path d="M92.9109 34.3245V21.3469H96.6245V23.547H96.7746C97.0086 22.8716 97.419 22.2861 98.0046 21.7919C98.5901 21.2976 99.4009 21.0499 100.438 21.0499C101.793 21.0499 102.818 21.4948 103.512 22.3847C104.207 23.2747 104.553 24.5442 104.553 26.1909V34.3233H100.84V26.4879C100.84 25.6473 100.706 25.0261 100.438 24.6218C100.17 24.2188 99.6937 24.0166 99.008 24.0166C98.7065 24.0166 98.4137 24.0536 98.1297 24.1276C97.8444 24.2015 97.5904 24.3211 97.364 24.4863C97.1387 24.6514 96.9586 24.8536 96.8247 25.0914C96.6908 25.3306 96.6245 25.6066 96.6245 25.9197V34.3245H92.9109Z" fill="#8ABE84"/>
<path d="M113.361 34.6203C112.357 34.6203 111.461 34.4601 110.676 34.1384C109.889 33.8167 109.224 33.3644 108.681 32.7789C108.137 32.1947 107.728 31.481 107.451 30.6404C107.175 29.7998 107.037 28.8606 107.037 27.8228C107.037 26.785 107.171 25.8741 107.439 25.0421C107.706 24.2102 108.103 23.4965 108.631 22.9037C109.158 22.3108 109.806 21.8535 110.575 21.5318C111.345 21.2101 112.223 21.0499 113.211 21.0499C114.298 21.0499 115.23 21.2311 116.008 21.5934C116.786 21.9558 117.422 22.4427 117.915 23.0516C118.408 23.6617 118.768 24.3655 118.994 25.1642C119.219 25.9641 119.333 26.7998 119.333 27.6736V28.7608H110.877V28.9567C110.877 29.8072 111.111 30.4814 111.58 30.9794C112.048 31.4785 112.785 31.7275 113.789 31.7275C114.558 31.7275 115.185 31.5772 115.67 31.2739C116.156 30.972 116.608 30.6071 117.025 30.1831L118.882 32.4634C118.297 33.1413 117.531 33.67 116.586 34.0497C115.64 34.4293 114.567 34.6191 113.362 34.6191L113.361 34.6203ZM113.286 23.7443C112.532 23.7443 111.943 23.9883 111.516 24.4739C111.09 24.9608 110.877 25.6066 110.877 26.414V26.6112H115.494V26.3893C115.494 25.598 115.314 24.9596 114.955 24.4739C114.594 23.9883 114.039 23.7443 113.286 23.7443Z" fill="#8ABE84"/>
<path d="M123.749 34.5957C122.996 34.5957 122.441 34.4096 122.08 34.0398C121.72 33.6688 121.541 33.1955 121.541 32.6187V32.1244C121.541 31.5476 121.721 31.0743 122.08 30.7033C122.439 30.3323 122.996 30.1474 123.749 30.1474C124.503 30.1474 125.058 30.3335 125.419 30.7033C125.778 31.0743 125.958 31.5476 125.958 32.1244V32.6187C125.958 33.1955 125.778 33.6688 125.419 34.0398C125.058 34.4108 124.503 34.5957 123.749 34.5957Z" fill="#8ABE84"/>
<path d="M131.227 19.9628C130.473 19.9628 129.925 19.7939 129.583 19.4562C129.24 19.1185 129.068 18.6858 129.068 18.1583V17.6147C129.068 17.0872 129.24 16.6546 129.583 16.3169C129.925 15.9791 130.473 15.8103 131.227 15.8103C131.98 15.8103 132.527 15.9791 132.871 16.3169C133.214 16.6546 133.385 17.0872 133.385 17.6147V18.1583C133.385 18.6858 133.214 19.1185 132.871 19.4562C132.528 19.7939 131.98 19.9628 131.227 19.9628ZM129.37 21.3469H133.083V34.3245H129.37V21.3469Z" fill="#8ABE84"/>
<path d="M141.891 34.6203C140.921 34.6203 140.055 34.4638 139.293 34.1507C138.532 33.8377 137.888 33.3841 137.361 32.7912C136.835 32.1984 136.429 31.481 136.144 30.6404C135.86 29.7998 135.717 28.8606 135.717 27.8228C135.717 26.785 135.859 25.8458 136.144 25.0052C136.428 24.1646 136.835 23.4521 137.361 22.8667C137.888 22.2824 138.532 21.8326 139.293 21.5195C140.054 21.2064 140.92 21.0499 141.891 21.0499C142.862 21.0499 143.726 21.2064 144.488 21.5195C145.249 21.8326 145.893 22.2824 146.42 22.8667C146.947 23.4521 147.352 24.1646 147.638 25.0052C147.922 25.8458 148.064 26.785 148.064 27.8228C148.064 28.8606 147.922 29.7998 147.638 30.6404C147.352 31.481 146.947 32.1984 146.42 32.7912C145.893 33.3841 145.249 33.8377 144.488 34.1507C143.727 34.4638 142.862 34.6203 141.891 34.6203ZM141.891 31.7288C142.626 31.7288 143.196 31.5069 143.597 31.0607C143.999 30.6158 144.199 29.981 144.199 29.1576V26.5126C144.199 25.6892 143.999 25.0545 143.597 24.6095C143.196 24.1646 142.626 23.9427 141.891 23.9427C141.155 23.9427 140.586 24.1646 140.184 24.6095C139.782 25.0545 139.582 25.6892 139.582 26.5126V29.1576C139.582 29.9822 139.782 30.6158 140.184 31.0607C140.586 31.5057 141.154 31.7288 141.891 31.7288Z" fill="#8ABE84"/>
<path d="M42.3608 19.6559C42.5898 18.6033 42.7112 17.5112 42.7112 16.3921C42.7112 7.81346 35.6256 0.833496 26.9172 0.833496C18.2087 0.833496 11.1232 7.81346 11.1232 16.3921C11.1232 17.4977 11.242 18.5749 11.4647 19.6164C5.02852 21.6871 0.396544 27.7279 0.56796 34.7892C0.769404 43.0695 7.61351 49.7906 16.0204 49.9644C16.1455 49.9669 16.2694 49.9681 16.3945 49.9681C20.9239 49.9583 24.5624 46.2742 24.5624 41.8123V34.4428C21.5395 37.5859 17.2641 39.5493 12.532 39.5493V35.1121C18.8431 35.1121 24.0381 30.3175 24.5624 24.2311V21.5725C22.3127 23.4583 19.3999 24.5984 16.2218 24.5984V20.1612C20.845 20.1612 24.6074 16.4561 24.6074 11.9006H29.1118C29.1118 16.4623 32.8667 20.1612 37.4974 20.1612V24.5984C34.2768 24.5984 31.3289 23.4287 29.068 21.4998V23.2192H29.1118C29.1118 29.7887 34.517 35.1134 41.1859 35.1134V39.5506C36.4076 39.5506 32.0959 37.5477 29.068 34.3516V41.8456C29.068 46.2828 32.669 49.925 37.1721 50.0002C37.3372 50.0026 37.5036 50.0026 37.6713 50.0002C46.1195 49.8843 53.0299 43.1508 53.2363 34.8311C53.4115 27.7747 48.7908 21.7364 42.3633 19.6571L42.3608 19.6559Z" fill="#8ABE84"/>
</svg>
